<?xml version="1.0" encoding="utf-8"?>
<!-- Svg Vector Icons : http://www.onlinewebfonts.com/icon -->
<!DOCTYPE svg PUBLIC "-//W3C//DTD SVG 1.1//EN" "http://www.w3.org/Graphics/SVG/1.1/DTD/svg11.dtd">
<svg version="1.1" xmlns="http://www.w3.org/2000/svg" xmlns:xlink="http://www.w3.org/1999/xlink" x="0px" y="0px" viewBox="0 0 256 256" enable-background="new 0 0 256 256" xml:space="preserve">
<metadata> Svg Vector Icons : http://www.onlinewebfonts.com/icon </metadata>
<g><g><g><path fill="#000000" d="M245.8,152.4l-1.8-7l-2.5-1.4l0.3-3.8c-3,1.7-6.4,2.7-10,3.1c-2.3,0.2-5.6,0.2-9.9,0c-4.4-0.2-7.8-0.2-10.3,0l-5.1,0.8l-3.3-2.1l-2,0.9l-4.6-1.6c-2.7,0.3-5,3.8-6.8,10.6c-0.7,0.1-3.6,0.3-8.9,0.6c-4.1,0.2-6.9-0.4-8.4-1.9c3.3-3.3,4.8-6.9,4.4-10.7c-0.1-0.9-5-6.6-14.7-17c-11.2-11.6-17.4-18.3-18.5-20l-2.3-6l17.5,0.2c-7-2.2-12.4-3.8-16.3-4.7l2.4-0.6l8.5,2.2l-8.5-6l3-1l-4-2.3l1.4-2.6c0.5,0,1.4,0.1,3,0.6c1.5,0.4,2.8,0.5,4,0.1l-9.8-5.2c0.2,0,3.9-0.9,11.1-2.5c4.2-0.9,7.7-2.1,10.2-3.8c-12.6-2.6-23.2-5.4-31.7-8.4c1-6.3,1.9-10.9,2.7-14c4.2-1.6,9.3-5.8,15.5-12.5c6.2-6.8,12-10.9,17.6-12.4l-9.7-1.4c-5,0.5-14.4,4.6-28.2,12.5c-13.8,7.8-22.8,13.8-26.9,18.1c-15.8-9.6-26.7-16.3-32.5-20.3c0.7,7.2,3.9,14,9.6,20.4s12.1,11.2,19.3,14.6c-0.1,3.4-1.7,6.5-4.7,9c-3,2.6-4.5,4.8-4.3,6.6l0.3,2.7c1.7-0.9,3.3-1.4,4.6-1.5c4.1-0.4,6.3,1.6,6.8,6.2l-0.3,6.9l1.8,0.5l5.3-5l0.4,1l-2.3,4.7l1.8,4.6c-7.2,14.2-11.6,22.1-13,23.6c-3.3,4-11.2,9.1-23.8,15.4l-8.9-3.2l1.1,4c-1.6,0.4-17.9-0.9-49-3.9l-5.4,0.6l3,2.1c24.6,1.6,40.9,3,49.1,4.2c2.8,2.7,4.7,4,5.9,3.9c3.8-0.4,6.6-1.3,8.3-2.9l5.8,3.5l11.8-1.5c0.1,1.1-1.5,7.8-4.8,20c4.7,1.1,7.4,6,8.3,14.6c0.8,8.1,1.1,13.1,0.8,15c-0.1,5.7-1.7,10.1-4.9,13.2c0.3,2.9-0.9,5.5-3.5,7.5c-2.6,2.1-5.2,4.1-7.7,5.9c7.8,0.8,14.8-3.7,20.9-13.4l3.4,2.7l1.3-0.5c-0.2-1.6-2-5.9-5.4-12.8c1.3-7.4,2.4-13.1,3.4-17.1c5.8,3.3,10.8,7.3,14.9,12.2c1.3,1.5,5.1,6.5,11.5,14.9c-1.5,5.9-2.9,9.8-4.3,11.9c-1.4,2.1-4.6,4.7-9.5,8l0.9,2c7.9-3.1,14.8-8.5,20.6-16.1l3.9,1c0.3-1.4-1.7-4.7-6.1-9.8c-4.4-5.1-7-8.8-7.6-11l1.2-1.5c2.1,0.5,8.2,0.9,18.3,1.2c8.5,0.3,14,1.1,16.7,2.4c0.5,0.2,2.5,1.7,5.9,4.5c2.7,2.2,5.1,3.3,7.2,3l4.5-2.5l5.8,2.8c6.2-6.1,11.5-9.4,15.8-9.8l1-0.1c-8.9-2.7-18-7.8-27.2-15.2c-10-8.3-15.8-16.4-17.6-24.4l7.1-4.5c9.2,1.1,16.2,2.3,20.9,3.7c0.5,7.5,2.6,11,6.2,10.7c1.1-0.1,2.3-0.6,3.6-1.4l3.3,2.4l2.2-1.9c1.5,1.4,7.2,3.1,17,5c10.9,2,17.9,3.6,21,4.9C245.5,167.3,246.5,159.2,245.8,152.4z"/></g><g></g><g></g><g></g><g></g><g></g><g></g><g></g><g></g><g></g><g></g><g></g><g></g><g></g><g></g><g></g></g></g>
</svg>